<svg width="802" height="462" viewBox="0 0 802 462" fill="none" xmlns="http://www.w3.org/2000/svg">
<path fill-rule="evenodd" clip-rule="evenodd" d="M569.959 27.5471L531.192 0.379883L424.393 135.646C404.44 162.243 394.178 189.791 394.178 214.678C394.178 242.225 404.82 265.973 425.913 285.921C447.197 305.869 472.282 315.748 500.787 315.748C529.672 315.748 554.376 305.489 574.9 285.351C595.423 265.023 605.875 240.516 605.875 212.018C605.875 185.231 596.563 160.344 578.13 141.156C559.507 121.778 537.083 112.089 511.238 112.089C510.098 112.089 508.768 112.089 507.248 112.279L569.959 27.5471ZM535.943 177.632C545.824 187.321 550.765 201 550.765 215.058C550.765 228.357 545.824 239.756 535.753 249.825C525.871 259.514 514.089 264.453 500.216 264.453C485.774 264.453 473.992 259.704 464.11 249.825C454.228 240.136 449.287 228.357 449.287 214.488C449.287 200.62 454.228 187.131 464.11 177.442C473.992 167.753 485.774 162.813 500.026 162.813C514.089 163.003 525.871 167.753 535.943 177.632Z" fill="#FF7A14"/>
<path d="M54.0193 2.27998V1.33008H53.0692H1.95017H1V2.27998V313.848V314.798H1.95017H52.8791H53.8293V313.848V2.27998H54.0193ZM262.296 225.507H263.246V224.557V210.499C263.246 178.772 255.075 150.465 238.162 131.847C221.059 113.039 197.875 103.92 168.99 103.92C140.485 103.92 117.11 113.419 99.4373 132.607C81.9543 151.985 73.5928 180.102 73.5928 210.689C73.5928 241.656 82.3343 266.923 100.388 286.111C118.441 305.109 142.195 314.608 171.46 314.608C181.532 314.608 191.033 313.468 199.775 311.379C208.517 309.289 216.878 305.869 224.479 301.12C232.081 296.37 239.112 290.481 245.763 283.262C252.414 276.042 258.495 267.493 264.196 257.614L266.097 254.194L266.667 253.435L265.907 253.055L222.769 228.927L222.009 228.547L221.439 229.307L219.539 232.347C210.797 246.025 203.196 254.954 196.925 259.704C190.843 264.073 182.862 266.543 172.98 266.543C160.248 266.543 150.176 262.364 142.195 254.384C135.164 247.165 130.793 237.666 129.083 225.507H262.296ZM200.345 264.263C207.376 259.134 215.168 249.635 223.909 236.146L258.875 255.714C258.305 256.474 257.925 257.234 257.355 258.184C252.224 266.353 247.093 273.572 241.392 279.652C235.121 286.491 228.47 292.001 221.249 296.37C214.218 300.74 206.426 303.779 198.255 305.869C189.893 307.959 180.962 308.909 171.27 308.909C143.525 308.909 121.101 299.98 104.378 282.122C87.6553 264.263 79.1038 240.326 79.1038 210.689C79.1038 181.052 87.2752 154.455 103.618 136.406C119.961 118.548 141.815 109.429 168.99 109.429C196.354 109.429 218.018 118.168 233.981 135.456C249.754 152.745 257.735 179.532 257.735 210.309L257.545 219.618H123.762H122.621V220.568C122.811 221.898 122.811 223.228 123.001 224.367C124.712 238.236 129.653 249.445 138.014 257.994C147.136 267.113 158.728 271.863 172.79 271.863C183.812 272.053 192.934 269.583 200.345 264.263ZM156.637 154.835C160.818 153.315 165.189 152.555 169.94 152.555C180.772 152.555 189.133 155.214 195.404 160.154C200.535 164.144 204.526 170.033 207.376 177.822H133.073C134.023 175.162 135.354 172.883 136.684 170.603C139.154 166.803 142.005 163.574 145.235 160.914C148.846 158.254 152.457 156.164 156.637 154.835L156.257 153.885L156.637 154.835ZM125.662 182.192L125.282 183.332H126.422H213.838H214.978L214.598 182.192C214.218 180.862 213.838 179.532 213.457 178.392C210.037 167.943 204.716 159.964 197.495 154.645C190.273 149.325 180.962 146.665 169.94 146.665C164.619 146.665 159.488 147.425 154.737 149.135C149.986 150.655 145.615 153.125 141.815 156.164C138.014 159.204 134.784 162.814 131.933 167.183C129.843 170.413 128.132 174.023 126.802 178.012C126.422 179.722 126.042 181.052 125.662 182.192ZM6.701 309.289V7.0295H48.3183V309.289H6.701V309.289Z" fill="#FF7A14"/>
<path d="M156.637 154.835C160.818 153.315 165.189 152.555 169.94 152.555C180.772 152.555 189.133 155.214 195.404 160.154C200.535 164.144 204.526 170.033 207.376 177.822H133.073C134.023 175.162 135.354 172.883 136.684 170.603C139.154 166.803 142.005 163.574 145.235 160.914C148.846 158.254 152.457 156.164 156.637 154.835ZM156.637 154.835L156.257 153.885L156.637 154.835ZM54.0193 2.27998V1.33008H53.0692H1.95017H1V2.27998V313.848V314.798H1.95017H52.8791H53.8293V313.848V2.27998H54.0193ZM262.296 225.507H263.246V224.557V210.499C263.246 178.772 255.075 150.465 238.162 131.847C221.059 113.039 197.875 103.92 168.99 103.92C140.485 103.92 117.11 113.419 99.4373 132.607C81.9543 151.985 73.5928 180.102 73.5928 210.689C73.5928 241.656 82.3343 266.923 100.388 286.111C118.441 305.109 142.195 314.608 171.46 314.608C181.532 314.608 191.033 313.468 199.775 311.379C208.517 309.289 216.878 305.869 224.479 301.12C232.081 296.37 239.112 290.481 245.763 283.262C252.414 276.042 258.495 267.493 264.196 257.614L266.097 254.194L266.667 253.435L265.907 253.055L222.769 228.927L222.009 228.547L221.439 229.307L219.539 232.347C210.797 246.025 203.196 254.954 196.925 259.704C190.843 264.073 182.862 266.543 172.98 266.543C160.248 266.543 150.176 262.364 142.195 254.384C135.164 247.165 130.793 237.666 129.083 225.507H262.296ZM200.345 264.263C207.376 259.134 215.168 249.635 223.909 236.146L258.875 255.714C258.305 256.474 257.925 257.234 257.355 258.184C252.224 266.353 247.093 273.572 241.392 279.652C235.121 286.491 228.47 292.001 221.249 296.37C214.218 300.74 206.426 303.779 198.255 305.869C189.893 307.959 180.962 308.909 171.27 308.909C143.525 308.909 121.101 299.98 104.378 282.122C87.6553 264.263 79.1038 240.326 79.1038 210.689C79.1038 181.052 87.2752 154.455 103.618 136.406C119.961 118.548 141.815 109.429 168.99 109.429C196.354 109.429 218.018 118.168 233.981 135.456C249.754 152.745 257.735 179.532 257.735 210.309L257.545 219.618H123.762H122.621V220.568C122.811 221.898 122.811 223.228 123.001 224.367C124.712 238.236 129.653 249.445 138.014 257.994C147.136 267.113 158.728 271.863 172.79 271.863C183.812 272.053 192.934 269.583 200.345 264.263ZM125.662 182.192L125.282 183.332H126.422H213.838H214.978L214.598 182.192C214.218 180.862 213.838 179.532 213.457 178.392C210.037 167.943 204.716 159.964 197.495 154.645C190.273 149.325 180.962 146.665 169.94 146.665C164.619 146.665 159.488 147.425 154.737 149.135C149.986 150.655 145.615 153.125 141.815 156.164C138.014 159.204 134.784 162.814 131.933 167.183C129.843 170.413 128.132 174.023 126.802 178.012C126.422 179.722 126.042 181.052 125.662 182.192ZM6.701 309.289V7.0295H48.3183V309.289H6.701V309.289Z" stroke="#FF7A14" stroke-width="1.96301"/>
<path d="M259.893 364.726H246.316L214.984 439.399H228.875L238.17 419.034H268.039L277.334 439.399H291.224L259.893 364.726ZM253.104 377.989L263.966 406.188H242.243L253.104 377.989Z" fill="#FF7A14"/>
<path d="M311.405 382.063C311.405 377.467 312.972 375.692 315.583 375.692C318.403 375.692 321.432 376.945 324.356 378.616V365.561C322.267 364.308 317.567 363.159 314.016 363.159C303.781 363.159 297.933 367.337 297.933 377.676V385.3H292.815V396.788H297.933V439.399H311.51V396.788H321.64V385.3H311.405V382.063Z" fill="#FF7A14"/>
<path d="M361.656 386.344C359.567 384.987 357.165 384.36 354.972 384.36C349.645 384.36 346.303 387.807 344.737 393.655V385.3H331.16V439.399H344.737V415.483C344.737 403.159 348.183 396.997 353.196 396.997C356.121 396.997 358.94 397.937 361.656 399.817V386.344Z" fill="#FF7A14"/>
<path d="M379.51 364.726C374.601 364.726 370.528 368.694 370.528 373.603C370.528 378.407 374.601 382.48 379.51 382.48C384.314 382.48 388.387 378.407 388.387 373.603C388.387 368.694 384.314 364.726 379.51 364.726ZM386.298 385.3H372.721V439.399H386.298V385.3Z" fill="#FF7A14"/>
<path d="M437.21 385.3V393.655C434.599 387.598 428.751 383.838 421.44 383.838C404.939 383.838 397.315 397.206 397.315 412.767C397.315 428.224 404.73 440.966 421.754 440.966C429.169 440.966 434.704 437.519 437.21 431.566V461.331H450.787V385.3H437.21ZM423.633 428.642C413.921 428.642 410.996 420.914 410.996 412.454C410.996 404.099 414.965 396.162 423.633 396.162C433.555 396.162 436.479 405.143 436.479 412.454C436.479 419.869 433.555 428.642 423.633 428.642Z" fill="#FF7A14"/>
<path d="M509.97 385.3H496.393V416.109C496.393 422.689 491.694 428.329 485.323 428.642C478.012 428.329 474.775 421.958 474.775 413.394V385.3H461.198V413.394C461.198 433.759 468.613 440.652 483.025 440.966C490.336 440.652 495.349 435.326 496.393 431.357V439.399H509.97V385.3Z" fill="#FF7A14"/>
<path d="M570.585 423.42H555.754C553.77 426.553 550.533 428.642 545.102 428.642C538 428.642 533.3 423.629 533.3 417.467H571.211V407.232C571.211 395.326 562.961 383.838 545.102 383.838C524.11 383.838 518.888 399.817 518.888 412.245C518.888 424.569 525.154 440.966 545.102 440.966C559.305 440.966 567.451 432.715 570.585 423.42ZM545.102 396.162C552.935 396.162 557.739 400.235 557.739 406.188H533.822C533.822 400.235 538.835 396.162 545.102 396.162Z" fill="#FF7A14"/>
<path fill-rule="evenodd" clip-rule="evenodd" d="M616.338 212.208C616.338 228.927 613.107 244.315 606.836 258.564C610.257 264.643 614.057 270.533 618.238 275.662C638.762 302.069 663.846 315.558 693.301 315.558C722.567 315.558 747.651 302.069 767.985 275.662C790.789 246.595 802.001 207.269 802.001 158.064C802.001 108.859 790.789 69.3429 767.985 40.2759C747.651 13.8686 722.567 0.379961 693.111 0.379961C663.656 0.379961 638.572 13.8686 618.238 40.2759C598.855 64.9734 587.833 96.5102 584.982 134.886L585.932 135.836C606.076 156.924 616.338 182.761 616.338 212.208ZM383.927 214.868C383.927 198.72 387.728 182.571 394.949 166.423C390.008 159.964 384.117 154.454 377.086 149.515C396.659 133.746 406.541 112.659 406.541 86.0612C406.541 60.9838 397.989 40.2759 380.696 24.1275C363.403 7.97919 341.169 0 314.185 0C287.77 0 266.486 6.64933 251.664 21.0879C236.271 34.7665 226.579 56.2343 221.828 84.7314L221.068 89.101H273.327L273.897 86.0612C276.938 71.8127 281.689 62.3137 287.39 56.8042C293.281 51.4848 302.022 48.6351 313.804 48.6351C326.347 48.6351 336.228 52.2447 343.83 59.6539C351.621 66.8732 355.422 76.1823 355.422 87.9611C355.422 103.349 350.101 113.988 339.649 120.638C336.989 122.348 332.808 123.867 326.537 124.817C320.456 125.767 312.664 126.337 303.353 126.337H299.552V172.122H303.353C320.646 172.122 332.808 174.592 340.219 178.962C353.141 186.561 359.793 199.48 359.793 218.478C359.793 232.726 355.232 244.315 346.49 253.434C337.749 262.173 326.727 266.733 313.044 266.733C299.362 266.733 288.53 263.123 280.359 256.284C272.757 249.635 268.196 240.326 264.966 227.787C264.586 226.267 264.396 224.937 264.396 223.417V222.277H213.467L213.847 226.457C215.747 246.405 220.498 262.363 228.099 274.142C246.343 301.689 274.278 315.368 311.144 315.368C340.029 315.368 364.163 306.629 382.977 288.961C389.248 283.071 394.569 276.422 398.749 269.393C389.058 253.054 383.927 234.816 383.927 214.868ZM759.034 204.287C758.875 198.8 758.529 192.997 756.258 187.693C754.252 183.009 755.164 179.528 759.215 176.411C760.105 175.73 760.894 174.959 761.751 174.123L761.786 174.089C762.981 172.919 764.182 171.757 765.384 170.595L765.388 170.591L765.843 170.151L766.301 169.708C770.143 166 774.115 162.163 777.865 158.226C780.665 155.289 783.125 152.071 785.171 148.665C787.18 145.323 786.71 143.151 785.96 141.918C785.204 140.667 783.448 139.201 779.453 139.411C775.981 139.576 772.487 139.974 769.103 140.36L769.025 140.369L766.036 140.704C765.872 140.722 765.586 140.752 765.338 140.77C765.332 140.629 765.33 140.444 765.332 140.202C765.373 135.52 763.253 131.936 759.024 129.55C758.579 129.299 758.115 129.077 757.647 128.857L757.635 128.852C756.962 128.533 756.325 128.232 755.812 127.848L755.799 127.838L755.798 127.838C754.483 126.849 752.851 125.622 751.711 124.222C750.512 122.741 749.61 120.893 748.959 119.446C747.507 116.225 746.081 112.99 744.656 109.757L744.342 109.046C742.457 104.766 740.57 100.489 738.631 96.2344C737.57 93.9087 736.304 91.8356 734.87 90.0739C732.739 87.4607 729.527 86.7739 726.276 88.2518C724.716 88.9587 723.238 88.9843 721.646 88.3379C720.974 88.0642 720.31 87.7758 719.645 87.4864L719.316 87.3435C718.055 86.7904 716.791 86.2392 715.497 85.7704L715.074 85.6165L715.055 85.6095C712.584 84.7125 710.031 83.7855 707.4 83.1882C704.318 82.4868 701.847 83.886 700.638 87.0376C700.527 87.3251 700.455 87.6383 700.388 87.9496C700.351 88.1254 700.294 88.3928 700.263 88.4514C700.05 88.7133 699.777 88.9495 699.607 89.0612L699.139 88.9676C698.245 88.6524 697.317 88.463 696.364 88.4128C692.776 87.6971 689.102 86.9331 685.616 85.8546C684.109 85.3913 683.233 84.8694 682.938 84.2595C682.62 83.6058 682.784 82.5033 683.457 80.7892C683.548 80.5585 683.633 80.3259 683.714 80.0915C684.45 77.9763 684.326 76.0443 683.355 74.5005C682.387 72.9604 680.694 72.0008 678.46 71.7224C676.975 71.5393 675.77 71.51 674.66 71.6345L673.116 71.8067L673.08 71.8107C669.883 72.1647 666.58 72.5304 663.345 73.1179C659.822 73.757 656.311 74.4602 652.801 75.1653L652.618 75.2019L652.617 75.202L652.616 75.2022C648.739 75.9774 644.86 76.753 640.967 77.4416C637.413 78.0697 634.604 79.6831 632.62 82.2341C631.356 83.8603 630.199 85.8455 629.079 88.3067C626.148 94.7584 622.186 99.9483 616.966 104.171C616.658 104.42 616.36 104.682 616.062 104.944L615.493 105.439C612.51 107.971 611.137 111.299 611.423 115.472C611.49 116.439 611.558 117.41 611.706 118.368C612.157 121.272 611.708 123.949 610.337 126.554C609.688 127.782 609.276 128.965 609.115 130.066C607.868 138.521 610.924 145.755 617.955 150.981C623.437 155.058 629.889 158.264 637.13 160.513C639.581 161.273 641.941 161.802 644.146 162.086C650.345 162.883 654.947 161.696 658.654 158.341L658.69 158.309L658.691 158.308L658.691 158.308L658.692 158.307C659.61 157.477 660.547 156.63 660.722 156.537C661.032 156.67 661.829 157.669 662.606 158.642L662.628 158.669C665.951 162.846 670.18 164.403 675.196 163.313C674.83 164.608 674.491 165.815 674.216 167.035C673.122 171.866 673.891 176.246 676.563 180.425C678.674 183.732 680.371 187.437 682.01 191.019L682.359 191.781C684.03 195.422 683.79 198.875 681.62 202.335C678.027 208.063 678.147 213.727 681.984 219.65C684.239 223.126 686.274 227.301 688.031 232.059C690.539 238.844 692.084 246.39 692.752 255.133C693.038 258.895 695.055 261.262 698.585 261.984C699.989 262.273 701.309 262.418 702.529 262.418C703.471 262.418 704.355 262.332 705.172 262.162C716.233 259.834 725.622 254.173 733.081 245.334C734.129 244.092 735.484 242.153 735.998 239.957C736.905 236.051 738.849 232.872 742.113 229.951C745.072 227.305 745.873 223.677 744.365 219.739C743.877 218.461 743.932 218.089 743.978 217.987C744.026 217.884 744.281 217.597 745.599 217.132C746.353 216.867 747.117 216.633 747.882 216.398L747.883 216.398L747.883 216.398L747.884 216.398L747.884 216.398L747.885 216.398L747.885 216.397L747.886 216.397L747.886 216.397L747.887 216.397L747.89 216.396L748.005 216.361C749.305 215.965 750.643 215.555 751.94 215.009C756.731 212.995 759.185 209.285 759.039 204.283L759.034 204.287ZM676.427 78.4637C676.542 78.5268 676.657 78.5922 676.771 78.6596L676.833 78.4928C676.69 78.4793 676.555 78.4691 676.427 78.4637ZM748.668 131.371C748.641 131.346 748.613 131.321 748.586 131.296C748.568 131.349 748.549 131.402 748.531 131.455C748.604 131.451 748.677 131.447 748.75 131.445C748.723 131.42 748.695 131.396 748.668 131.371Z" fill="#FF7A14"/>
</svg>
