<svg width="18" height="18" viewBox="0 0 18 18" fill="none" xmlns="http://www.w3.org/2000/svg">
<path fill-rule="evenodd" clip-rule="evenodd" d="M2.74827 5.24221H15.7033C15.9785 5.24221 16.2016 5.01915 16.2016 4.74394V3.49827C16.2016 3.22307 15.9785 3 15.7033 3H2.74827C2.47307 3 2.25 3.22307 2.25 3.49827V4.74394C2.25 5.01915 2.47307 5.24221 2.74827 5.24221ZM2.74827 10.2249H15.7033C15.9785 10.2249 16.2016 10.0018 16.2016 9.72664V8.48097C16.2016 8.20577 15.9785 7.9827 15.7033 7.9827H2.74827C2.47307 7.9827 2.25 8.20577 2.25 8.48097V9.72664C2.25 10.0018 2.47307 10.2249 2.74827 10.2249ZM15.7033 15.2076H2.74827C2.47307 15.2076 2.25 14.9845 2.25 14.7093V13.4637C2.25 13.1885 2.47307 12.9654 2.74827 12.9654H15.7033C15.9785 12.9654 16.2016 13.1885 16.2016 13.4637V14.7093C16.2016 14.9845 15.9785 15.2076 15.7033 15.2076Z" fill="black"/>
<mask id="mask0_2276_5303" style="mask-type:alpha" maskUnits="userSpaceOnUse" x="2" y="3" width="15" height="13">
<path fill-rule="evenodd" clip-rule="evenodd" d="M2.74827 5.24221H15.7033C15.9785 5.24221 16.2016 5.01915 16.2016 4.74394V3.49827C16.2016 3.22307 15.9785 3 15.7033 3H2.74827C2.47307 3 2.25 3.22307 2.25 3.49827V4.74394C2.25 5.01915 2.47307 5.24221 2.74827 5.24221ZM2.74827 10.2249H15.7033C15.9785 10.2249 16.2016 10.0018 16.2016 9.72664V8.48097C16.2016 8.20577 15.9785 7.9827 15.7033 7.9827H2.74827C2.47307 7.9827 2.25 8.20577 2.25 8.48097V9.72664C2.25 10.0018 2.47307 10.2249 2.74827 10.2249ZM15.7033 15.2076H2.74827C2.47307 15.2076 2.25 14.9845 2.25 14.7093V13.4637C2.25 13.1885 2.47307 12.9654 2.74827 12.9654H15.7033C15.9785 12.9654 16.2016 13.1885 16.2016 13.4637V14.7093C16.2016 14.9845 15.9785 15.2076 15.7033 15.2076Z" fill="white"/>
</mask>
<g mask="url(#mask0_2276_5303)">
<rect width="18" height="18" fill="black"/>
<rect width="18" height="18" fill="black"/>
<rect width="18" height="18" fill="black"/>
</g>
</svg>
