<svg width="18" height="18" viewBox="0 0 18 18" fill="none" xmlns="http://www.w3.org/2000/svg">
<path fill-rule="evenodd" clip-rule="evenodd" d="M13.3718 11.4317L16.4766 14.5365C16.7663 14.8292 16.7663 15.3026 16.4735 15.5953L15.5922 16.4766C15.3026 16.7694 14.8292 16.7694 14.5365 16.4766L11.4317 13.3718C11.2915 13.2317 11.2137 13.0417 11.2137 12.8424V12.3348C10.1144 13.1943 8.73166 13.705 7.22751 13.705C3.64931 13.705 0.75 10.8057 0.75 7.22751C0.75 3.64931 3.64931 0.75 7.22751 0.75C10.8057 0.75 13.705 3.64931 13.705 7.22751C13.705 8.73166 13.1943 10.1144 12.3348 11.2137H12.8424C13.0417 11.2137 13.2317 11.2915 13.3718 11.4317ZM3.24135 7.22751C3.24135 9.43235 5.02578 11.2137 7.22751 11.2137C9.43235 11.2137 11.2137 9.42924 11.2137 7.22751C11.2137 5.02266 9.42924 3.24135 7.22751 3.24135C5.02266 3.24135 3.24135 5.02578 3.24135 7.22751Z" fill="black"/>
<mask id="mask0_2276_5283" style="mask-type:alpha" maskUnits="userSpaceOnUse" x="0" y="0" width="17" height="17">
<path fill-rule="evenodd" clip-rule="evenodd" d="M13.3718 11.4317L16.4766 14.5365C16.7663 14.8292 16.7663 15.3026 16.4735 15.5953L15.5922 16.4766C15.3026 16.7694 14.8292 16.7694 14.5365 16.4766L11.4317 13.3718C11.2915 13.2317 11.2137 13.0417 11.2137 12.8424V12.3348C10.1144 13.1943 8.73166 13.705 7.22751 13.705C3.64931 13.705 0.75 10.8057 0.75 7.22751C0.75 3.64931 3.64931 0.75 7.22751 0.75C10.8057 0.75 13.705 3.64931 13.705 7.22751C13.705 8.73166 13.1943 10.1144 12.3348 11.2137H12.8424C13.0417 11.2137 13.2317 11.2915 13.3718 11.4317ZM3.24135 7.22751C3.24135 9.43235 5.02578 11.2137 7.22751 11.2137C9.43235 11.2137 11.2137 9.42924 11.2137 7.22751C11.2137 5.02266 9.42924 3.24135 7.22751 3.24135C5.02266 3.24135 3.24135 5.02578 3.24135 7.22751Z" fill="white"/>
</mask>
<g mask="url(#mask0_2276_5283)">
<rect width="18" height="18" fill="black"/>
<rect width="18" height="18" fill="black"/>
<rect width="18" height="18" fill="black"/>
</g>
</svg>
